<svg width="193" height="172" viewBox="0 0 193 172" fill="none" xmlns="http://www.w3.org/2000/svg">
<path d="M84.4139 35.7422C84.4042 35.727 84.3956 35.7114 84.3882 35.6953L84.4001 35.6848C84.4062 35.7036 84.4108 35.7228 84.4139 35.7422V35.7422Z" fill="#3FBDF1"/>
<path d="M84.46 35.948C84.4418 35.8917 84.4288 35.8342 84.421 35.776C84.4528 35.8288 84.4663 35.8885 84.46 35.948Z" fill="#3FBDF1"/>
<path d="M93.1014 95.1728C93.0533 95.2708 93.0129 95.3671 92.9648 95.4686C89.4134 103.2 86.9355 112.45 86.3602 123.52C76.5005 101.927 60.1438 91.4748 45.5744 86.4558C45.8361 79.2404 46.9577 66.693 51.5384 58.9839C51.5384 58.9839 59.2954 60.6059 69.059 67.4446C76.7621 72.8403 85.7253 81.4936 93.1014 95.1728Z" fill="#3FBDF1"/>
<path d="M94.5558 95.0558L94.223 94.9887C94.2711 94.8855 94.3134 94.7875 94.3596 94.6877C94.425 94.8081 94.4924 94.944 94.5558 95.0558Z" fill="#3FBDF1"/>
<path d="M94.5558 95.0558L94.223 94.9887C94.2711 94.8855 94.3134 94.7875 94.3596 94.6877C94.425 94.8081 94.4924 94.944 94.5558 95.0558Z" fill="#3FBDF1"/>
<path d="M88.1802 144.619C88.0859 144.619 87.9878 144.619 87.8955 144.619C51.1075 144.619 20.6336 119.695 15.1736 87.1318C14.8062 84.3522 14.7504 82.6924 14.7504 82.6924C14.7504 82.6924 28.025 81.4884 43.4159 86.9047C57.0657 91.7087 72.3834 101.71 81.616 122.371V122.387C81.6718 122.51 81.7276 122.633 81.7776 122.762C84.5364 129.014 86.7335 136.236 88.1687 144.573C88.1744 144.588 88.1802 144.604 88.1802 144.619Z" fill="#3FBDF1"/>
<path d="M173.817 83.6901C170.302 120.572 136.836 149.532 96.0314 149.68C96.0545 148.004 96.6413 129.072 109.423 111.908C115.137 104.163 122.812 97.7311 131.827 93.1346C132.083 93.0021 132.331 92.8766 132.596 92.751C132.91 92.5911 133.231 92.438 133.558 92.2849C133.641 92.2419 133.729 92.2023 133.82 92.1593C134.133 92.0114 134.447 91.8635 134.768 91.7207C134.934 91.6451 135.099 91.5677 135.272 91.4971C135.615 91.3389 135.965 91.1841 136.315 91.0362C136.665 90.8883 136.973 90.7575 137.306 90.6217L137.423 90.5718C137.673 90.4669 137.922 90.3688 138.175 90.2708C138.491 90.1383 138.805 90.0179 139.124 89.8975C140.055 89.5363 141.015 89.1923 141.994 88.8655L142.333 88.7503C142.747 88.6075 143.162 88.4717 143.583 88.3392C152.048 85.656 162.043 83.9515 173.817 83.6901Z" fill="#71DDB1"/>
<path d="M118.281 66.5795C109.945 72.2245 100.554 81.1221 94.3596 94.6877C86.9894 80.7385 78.0511 71.9115 70.3634 66.4092C74.9037 58.8412 85.1944 43.4593 94.5559 36.2645C94.5559 36.2645 108.729 48.7809 118.281 66.5795Z" fill="#71DDB1"/>
<path d="M142.743 86.8996C142.331 87.0286 141.923 87.1627 141.515 87.3021L141.184 87.4156C140.222 87.7372 139.284 88.0761 138.37 88.4304C138.056 88.5491 137.748 88.666 137.441 88.795C137.19 88.8931 136.946 88.9894 136.702 89.0909L136.584 89.139C136.259 89.2732 135.934 89.4073 135.623 89.5484C135.311 89.6894 134.936 89.8425 134.597 89.999C134.43 90.0678 134.266 90.1435 134.105 90.2192C133.789 90.3585 133.481 90.503 133.173 90.6492C133.087 90.6922 132.998 90.7283 132.918 90.7713C132.604 90.9227 132.29 91.0723 131.981 91.2288C131.725 91.3527 131.48 91.4748 131.23 91.6038C122.384 96.1123 114.851 102.422 109.243 110.02C96.7067 126.855 96.1295 145.428 96.1065 147.07L96.0776 147.022C94.577 138.305 92.2818 130.754 89.396 124.218L89.6231 123.553L89.2287 123.826C89.2287 123.826 89.2287 123.826 89.2287 123.816C89.7924 112.743 92.2164 103.484 95.6948 95.7559L96.0199 95.8195L95.8275 95.46C101.905 82.1524 111.116 73.4251 119.299 67.8884C128.935 61.3696 137.15 59.2592 137.15 59.2592C141.533 64.1027 142.533 78.9188 142.743 86.8996Z" fill="#3FBDF1"/>
<path d="M87.2471 125.45V125.431C87.2471 125.431 87.2471 125.442 87.2471 125.45Z" stroke="#CCDDE2" stroke-width="0.84164" stroke-miterlimit="10"/>
<path d="M94.3577 94.8563C94.3077 94.9612 94.2634 95.0644 94.2134 95.1745C90.4638 103.51 87.8493 113.494 87.2394 125.436C76.8313 102.142 59.5609 90.8642 44.1719 85.4513C44.447 77.6666 45.6321 64.1319 50.4726 55.814C50.4726 55.814 58.6624 57.5632 68.9724 64.942C77.1065 70.7625 86.5699 80.0987 94.3577 94.8563Z" stroke="#CCDDE2" stroke-width="0.84164" stroke-miterlimit="10"/>
<path d="M94.5655 95.245L94.2134 95.1745C94.2634 95.0644 94.3077 94.9612 94.3577 94.8563C94.4269 94.9835 94.4924 95.116 94.5655 95.245Z" stroke="#CCDDE2" stroke-width="0.84164" stroke-miterlimit="10"/>
<path d="M87.2471 125.45V125.431C87.2471 125.431 87.2471 125.442 87.2471 125.45Z" stroke="#CCDDE2" stroke-width="0.84164" stroke-miterlimit="10"/>
<path d="M94.5655 95.245L94.2134 95.1745C94.2634 95.0644 94.3077 94.9612 94.3577 94.8563C94.4269 94.9835 94.4924 95.116 94.5655 95.245Z" stroke="#CCDDE2" stroke-width="0.84164" stroke-miterlimit="10"/>
<path opacity="0.9" d="M30.9108 123.004C30.2316 122.263 29.5641 121.504 28.9215 120.734C20.2716 110.445 14.5737 98.4187 12.3263 85.7059C11.7665 82.5909 11.853 80.7024 11.853 80.7024C11.853 80.7024 26.811 79.347 44.1738 85.4513C59.5647 90.8659 76.8294 102.135 87.2394 125.436V125.455C87.3029 125.594 87.3683 125.734 87.4202 125.878C90.5369 132.93 93.011 141.069 94.6309 150.474C94.6309 150.491 94.6309 150.509 94.6309 150.528C94.5212 150.528 94.4173 150.528 94.3077 150.528C72.8432 150.5 53.2679 142.846 38.5081 130.342C36.969 129.04 35.4703 127.679 34.039 126.27" stroke="#CCDDE2" stroke-width="0.84164" stroke-miterlimit="10"/>
<path d="M87.2471 125.45V125.431C87.2471 125.431 87.2471 125.442 87.2471 125.45Z" stroke="#CCDDE2" stroke-width="0.84164" stroke-miterlimit="10"/>
<path opacity="0.9" d="M176.953 80.7076C173.234 119.726 137.835 150.357 94.6655 150.514C94.6905 148.742 95.312 128.714 108.831 110.556C114.877 102.363 122.998 95.5598 132.535 90.6973C132.806 90.558 133.07 90.4255 133.345 90.2931C133.678 90.1211 134.016 89.9629 134.355 89.7995C134.441 89.753 134.536 89.7135 134.63 89.667C134.963 89.5105 135.295 89.354 135.634 89.2043C135.809 89.1218 135.984 89.0323 136.167 88.9653C136.531 88.7933 136.9 88.6367 137.271 88.4802C137.643 88.3237 137.966 88.1844 138.318 88.0399L138.443 87.9866C138.706 87.8765 138.97 87.7733 139.239 87.6684C139.572 87.5291 139.903 87.4018 140.242 87.2745C141.227 86.8927 142.243 86.528 143.278 86.1806L143.635 86.0585C144.074 85.9088 144.513 85.7626 144.959 85.625C153.926 82.7801 164.5 80.9845 176.953 80.7076Z" stroke="#CCDDE2" stroke-width="0.84164" stroke-miterlimit="10"/>
<path d="M119.662 65.1226C110.845 71.0927 100.91 80.5046 94.3577 94.8563C86.5699 80.0987 77.1064 70.7625 68.9724 64.942C73.782 56.932 84.6633 40.6642 94.5597 33.0532C94.5654 33.0532 109.547 46.2938 119.662 65.1226Z" stroke="#CCDDE2" stroke-width="0.84164" stroke-miterlimit="10"/>
<path d="M36.6343 107.747C36.6363 107.736 36.6363 107.724 36.6343 107.713C36.6343 107.701 36.6343 107.689 36.6343 107.667C36.6312 107.647 36.6312 107.628 36.6343 107.608C36.6398 107.649 36.6489 107.69 36.6616 107.73C36.6587 107.734 36.6547 107.738 36.65 107.741C36.6453 107.744 36.64 107.746 36.6343 107.747Z" fill="white"/>
<path d="M36.7055 118.867C36.4086 119.724 36.0295 120.555 35.5723 121.353C35.4415 121.578 35.3126 121.798 35.1702 122.019C34.6842 122.834 34.0878 123.593 33.3945 124.279C33.2714 124.242 33.1483 124.196 33.0386 124.156C33.0136 124.156 32.9924 124.139 32.9732 124.132C30.7319 123.259 29.0485 121.619 28.5483 119.777C28.102 118.155 28.5041 116.401 27.6422 114.879C26.5802 113.004 23.7175 111.831 23.3597 109.712C23.0365 107.73 25.0315 105.912 24.7064 103.972C24.337 101.776 21.3185 100.474 20.7605 98.3307C20.4046 96.9994 20.7221 95.4634 20.5932 94.0909C20.4442 92.5567 20.1533 91.0362 19.7236 89.5449C19.9313 89.5329 20.1391 89.5277 20.3469 89.5208C24.5794 89.4572 28.7676 91.5848 30.1413 94.5828C31.2494 97.0046 30.6857 99.8013 32.1555 102.072C32.2446 102.218 32.3442 102.36 32.4537 102.495C32.6466 102.734 32.854 102.964 33.0751 103.183L33.5426 103.618C33.6196 103.687 33.7042 103.75 33.7812 103.826C33.8582 103.902 33.9428 103.965 34.0217 104.041C34.7528 104.665 35.4992 105.297 35.984 106.045C36.0288 106.11 36.068 106.178 36.1014 106.248C36.1467 106.316 36.1854 106.387 36.2168 106.461C36.2586 106.537 36.2959 106.614 36.3284 106.693C36.3669 106.779 36.3996 106.865 36.4304 106.96C36.4765 107.099 36.5227 107.232 36.5535 107.371C36.5535 107.405 36.5535 107.435 36.567 107.464C36.5804 107.493 36.567 107.486 36.567 107.498C36.5698 107.51 36.5698 107.521 36.567 107.533C36.5697 107.552 36.5742 107.572 36.5804 107.591V107.603C36.5811 107.625 36.585 107.646 36.592 107.667V107.667C36.592 107.689 36.592 107.701 36.592 107.713C36.5939 107.725 36.5939 107.736 36.592 107.748V107.76L36.0937 114.223C36.413 115.787 37.2114 117.345 36.7055 118.867Z" fill="white"/>
<path d="M40.4685 103.178C40.7936 101.776 40.8186 100.305 41.5574 98.9671C42.931 96.5006 46.9442 94.7101 51.1517 94.5948H51.2286C51.6134 94.5948 51.9982 94.5949 52.3829 94.6121C51.9476 95.8944 51.6507 97.211 51.496 98.544C51.3537 99.7308 51.6884 101.059 51.321 102.199C50.7303 104.051 47.5887 105.176 47.2078 107.07C46.8692 108.749 48.9489 110.319 48.6064 112.027C48.237 113.857 45.257 114.87 44.1565 116.499C43.2677 117.815 43.6832 119.325 43.2234 120.722C42.6848 122.314 40.9148 123.733 38.585 124.48C38.435 124.526 38.3003 124.573 38.1502 124.614C38.0714 124.631 37.9809 124.66 37.904 124.678C37.877 124.66 37.852 124.636 37.8193 124.614C37.0671 124.041 36.2245 123.075 35.5261 122.034L35.578 121.374C36.0352 120.576 36.4143 119.744 36.7112 118.888C37.2172 117.366 36.4188 115.808 36.134 114.244L36.6323 107.78L36.7881 107.665C36.845 107.628 36.899 107.587 36.9497 107.543C37.7193 106.987 38.5504 106.454 39.1449 105.823C39.8836 105.047 40.228 104.196 40.4473 103.303" fill="white"/>
<path d="M40.4492 103.27C40.4492 103.241 40.4625 103.214 40.4683 103.178Z" fill="white"/>
<path d="M40.4685 103.172C40.4685 103.209 40.455 103.236 40.4493 103.265C40.23 104.158 39.8856 105.009 39.1468 105.785C38.5524 106.416 37.7232 106.95 36.9517 107.505C36.901 107.549 36.847 107.59 36.7901 107.627L36.6343 107.748C36.6369 107.74 36.6369 107.733 36.6343 107.725C36.6283 107.706 36.6213 107.686 36.6131 107.667V107.667C36.6101 107.647 36.6101 107.628 36.6131 107.608V107.596C36.6069 107.577 36.6024 107.558 36.5996 107.538C36.6025 107.527 36.6025 107.515 36.5996 107.503C36.6025 107.498 36.604 107.492 36.604 107.486C36.604 107.48 36.6025 107.474 36.5996 107.469C36.5948 107.438 36.5877 107.407 36.5785 107.376C36.5477 107.237 36.5015 107.104 36.4553 106.965C36.4246 106.877 36.3919 106.784 36.3534 106.698C36.3209 106.619 36.2836 106.542 36.2418 106.466C36.2145 106.391 36.1757 106.319 36.1264 106.253C36.093 106.183 36.0538 106.115 36.009 106.05C35.5242 105.302 34.7777 104.674 34.0467 104.046C33.9678 103.971 33.8851 103.895 33.8062 103.831C33.7273 103.768 33.6446 103.692 33.5676 103.623L33.1001 103.188C32.879 102.969 32.6716 102.739 32.4787 102.5C32.4787 102.5 32.9097 95.804 36.7382 93.7778C40.3531 91.848 40.4685 102.042 40.4685 103.172Z" fill="white"/>
<path d="M40.4492 103.27C40.4492 103.241 40.4625 103.214 40.4683 103.178Z" fill="white"/>
<path d="M36.6284 107.725V107.752C36.6303 107.741 36.6303 107.729 36.6284 107.718C36.6284 107.706 36.6284 107.694 36.6284 107.672C36.6255 107.652 36.6255 107.633 36.6284 107.613C36.6256 107.651 36.6256 107.688 36.6284 107.725V107.725Z" fill="white"/>
<path d="M49.5856 96.7379C42.6848 103.377 39.4412 117.378 38.1772 124.602C38.0733 125.213 37.9848 125.77 37.9001 126.272" fill="white"/>
<path d="M50.2225 130.34L47.0481 147.086C46.9729 147.543 46.7193 147.962 46.3321 148.269C45.9449 148.575 45.4489 148.75 44.9318 148.761H28.3367C27.8152 148.749 27.3155 148.571 26.9276 148.259C26.5397 147.948 26.2889 147.522 26.2204 147.06L23.2923 130.34H50.2225Z" fill="white"/>
<path d="M53.2372 128.472C53.2083 128.968 52.9711 129.436 52.573 129.782C52.175 130.128 51.6454 130.328 51.0902 130.34H22.4689C21.9192 130.328 21.3943 130.133 20.9973 129.793C20.6004 129.452 20.3602 128.992 20.3238 128.501V128.501C20.2026 127.308 21.1973 126.265 22.4689 126.265H51.0902C52.3484 126.274 53.3391 127.28 53.2372 128.472Z" fill="white"/>
<path d="M36.6477 107.759C36.6472 107.722 36.6401 107.685 36.6266 107.65L36.6477 107.759Z" fill="white"/>
<path d="M22.465 92.0045C29.0889 99.6963 32.2055 115.912 33.431 124.284C33.5349 125.01 33.6234 125.675 33.7023 126.27" fill="white"/>
<path d="M37.2307 100.178C36.4015 102.46 36.3611 104.765 36.4612 106.225C36.4876 106.697 36.5435 107.167 36.6285 107.632" fill="white"/>
<path d="M36.6343 107.747C36.6363 107.736 36.6363 107.724 36.6343 107.713C36.6343 107.701 36.6343 107.689 36.6343 107.667C36.6312 107.647 36.6312 107.628 36.6343 107.608C36.6398 107.649 36.6489 107.69 36.6616 107.73C36.6587 107.734 36.6547 107.738 36.65 107.741C36.6453 107.744 36.64 107.746 36.6343 107.747Z" stroke="#CCDDE2" stroke-width="0.84164" stroke-miterlimit="10"/>
<path d="M36.7055 118.867C36.4086 119.724 36.0295 120.555 35.5723 121.353C35.4415 121.578 35.3126 121.798 35.1702 122.019C34.6842 122.834 34.0878 123.593 33.3945 124.279C33.2714 124.242 33.1483 124.196 33.0386 124.156C33.0136 124.156 32.9924 124.139 32.9732 124.132C30.7319 123.259 29.0485 121.619 28.5483 119.777C28.102 118.155 28.5041 116.401 27.6422 114.879C26.5802 113.004 23.7175 111.831 23.3597 109.712C23.0365 107.73 25.0315 105.912 24.7064 103.972C24.337 101.776 21.3185 100.474 20.7605 98.3307C20.4046 96.9994 20.7221 95.4634 20.5932 94.0909C20.4442 92.5567 20.1533 91.0362 19.7236 89.5449C19.9313 89.5329 20.1391 89.5277 20.3469 89.5208C24.5794 89.4572 28.7676 91.5848 30.1413 94.5828C31.2494 97.0046 30.6857 99.8013 32.1555 102.072C32.2446 102.218 32.3442 102.36 32.4537 102.495C32.6466 102.734 32.854 102.964 33.0751 103.183L33.5426 103.618C33.6196 103.687 33.7042 103.75 33.7812 103.826C33.8582 103.902 33.9428 103.965 34.0217 104.041C34.7528 104.665 35.4992 105.297 35.984 106.045C36.0288 106.11 36.068 106.178 36.1014 106.248C36.1467 106.316 36.1854 106.387 36.2168 106.461C36.2586 106.537 36.2959 106.614 36.3284 106.693C36.3669 106.779 36.3996 106.865 36.4304 106.96C36.4765 107.099 36.5227 107.232 36.5535 107.371C36.5535 107.405 36.5535 107.435 36.567 107.464C36.5804 107.493 36.567 107.486 36.567 107.498C36.5698 107.51 36.5698 107.521 36.567 107.533C36.5697 107.552 36.5742 107.572 36.5804 107.591V107.603C36.5811 107.625 36.585 107.646 36.592 107.667V107.667C36.592 107.689 36.592 107.701 36.592 107.713C36.5939 107.725 36.5939 107.736 36.592 107.748V107.76L36.0937 114.223C36.413 115.787 37.2114 117.345 36.7055 118.867Z" stroke="#CCDDE2" stroke-width="0.84164" stroke-miterlimit="10"/>
<path d="M40.4685 103.178C40.7936 101.776 40.8186 100.305 41.5574 98.9671C42.931 96.5006 46.9442 94.7101 51.1517 94.5948H51.2286C51.6134 94.5948 51.9982 94.5949 52.3829 94.6121C51.9476 95.8944 51.6507 97.211 51.496 98.544C51.3537 99.7308 51.6884 101.059 51.321 102.199C50.7303 104.051 47.5887 105.176 47.2078 107.07C46.8692 108.749 48.9489 110.319 48.6064 112.027C48.237 113.857 45.257 114.87 44.1565 116.499C43.2677 117.815 43.6832 119.325 43.2234 120.722C42.6848 122.314 40.9148 123.733 38.585 124.48C38.435 124.526 38.3003 124.573 38.1502 124.614C38.0714 124.631 37.9809 124.66 37.904 124.678C37.877 124.66 37.852 124.636 37.8193 124.614C37.0671 124.041 36.2245 123.075 35.5261 122.034L35.578 121.374C36.0352 120.576 36.4143 119.744 36.7112 118.888C37.2172 117.366 36.4188 115.808 36.134 114.244L36.6323 107.78L36.7881 107.665C36.845 107.628 36.899 107.587 36.9497 107.543C37.7193 106.987 38.5504 106.454 39.1449 105.823C39.8836 105.047 40.228 104.196 40.4473 103.303" stroke="#CCDDE2" stroke-width="0.84164" stroke-miterlimit="10"/>
<path d="M40.4492 103.27C40.4492 103.241 40.4625 103.214 40.4683 103.178" stroke="#CCDDE2" stroke-width="0.84164" stroke-miterlimit="10"/>
<path d="M40.4685 103.172C40.4685 103.209 40.455 103.236 40.4493 103.265C40.23 104.158 39.8856 105.009 39.1468 105.785C38.5524 106.416 37.7232 106.95 36.9517 107.505C36.901 107.549 36.847 107.59 36.7901 107.627L36.6343 107.748C36.6369 107.74 36.6369 107.733 36.6343 107.725C36.6283 107.706 36.6213 107.686 36.6131 107.667V107.667C36.6101 107.647 36.6101 107.628 36.6131 107.608V107.596C36.6069 107.577 36.6024 107.558 36.5996 107.538C36.6025 107.527 36.6025 107.515 36.5996 107.503C36.6025 107.498 36.604 107.492 36.604 107.486C36.604 107.48 36.6025 107.474 36.5996 107.469C36.5948 107.438 36.5877 107.407 36.5785 107.376C36.5477 107.237 36.5015 107.104 36.4553 106.965C36.4246 106.877 36.3919 106.784 36.3534 106.698C36.3209 106.619 36.2836 106.542 36.2418 106.466C36.2145 106.391 36.1757 106.319 36.1264 106.253C36.093 106.183 36.0538 106.115 36.009 106.05C35.5242 105.302 34.7777 104.674 34.0467 104.046C33.9678 103.971 33.8851 103.895 33.8062 103.831C33.7273 103.768 33.6446 103.692 33.5676 103.623L33.1001 103.188C32.879 102.969 32.6716 102.739 32.4787 102.5C32.4787 102.5 32.9097 95.804 36.7382 93.7778C40.3531 91.848 40.4685 102.042 40.4685 103.172Z" stroke="#CCDDE2" stroke-width="0.84164" stroke-miterlimit="10"/>
<path d="M40.4492 103.27C40.4492 103.241 40.4625 103.214 40.4683 103.178" stroke="#CCDDE2" stroke-width="0.84164" stroke-miterlimit="10"/>
<path d="M36.6284 107.725V107.752C36.6303 107.741 36.6303 107.729 36.6284 107.718C36.6284 107.706 36.6284 107.694 36.6284 107.672C36.6255 107.652 36.6255 107.633 36.6284 107.613C36.6256 107.651 36.6256 107.688 36.6284 107.725V107.725Z" stroke="#CCDDE2" stroke-width="0.84164" stroke-miterlimit="10"/>
<path d="M49.5856 96.7379C42.6848 103.377 39.4412 117.378 38.1772 124.602C38.0733 125.213 37.9848 125.77 37.9001 126.272" stroke="#CCDDE2" stroke-width="0.84164" stroke-miterlimit="10"/>
<path d="M50.2225 130.34L47.0481 147.086C46.9729 147.543 46.7193 147.962 46.3321 148.269C45.9449 148.575 45.4489 148.75 44.9318 148.761H28.3367C27.8152 148.749 27.3155 148.571 26.9276 148.259C26.5397 147.948 26.2889 147.522 26.2204 147.06L23.2923 130.34H50.2225Z" stroke="#CCDDE2" stroke-width="0.84164" stroke-miterlimit="10"/>
<path d="M53.2372 128.472C53.2083 128.968 52.9711 129.436 52.573 129.782C52.175 130.128 51.6454 130.328 51.0902 130.34H22.4689C21.9192 130.328 21.3943 130.133 20.9973 129.793C20.6004 129.452 20.3602 128.992 20.3238 128.501V128.501C20.2026 127.308 21.1973 126.265 22.4689 126.265H51.0902C52.3484 126.274 53.3391 127.28 53.2372 128.472Z" stroke="#CCDDE2" stroke-width="0.84164" stroke-miterlimit="10"/>
<path d="M36.6477 107.759C36.6472 107.722 36.6401 107.685 36.6266 107.65L36.6477 107.759Z" stroke="#CCDDE2" stroke-width="0.84164" stroke-miterlimit="10"/>
<path d="M22.465 92.0045C29.0889 99.6963 32.2055 115.912 33.431 124.284C33.5349 125.01 33.6234 125.675 33.7023 126.27" stroke="#CCDDE2" stroke-width="0.84164" stroke-miterlimit="10"/>
<path d="M37.2307 100.178C36.4015 102.46 36.3611 104.765 36.4612 106.225C36.4876 106.697 36.5435 107.167 36.6285 107.632" stroke="#CCDDE2" stroke-width="0.84164" stroke-miterlimit="10"/>
<path d="M144.959 85.6251C144.513 85.7627 144.074 85.9089 143.635 86.0585L143.278 86.1806C142.242 86.5246 141.227 86.8927 140.242 87.2745C139.903 87.4018 139.572 87.5291 139.239 87.6684C138.97 87.7733 138.706 87.8765 138.443 87.9866L138.318 88.0399C137.966 88.1844 137.616 88.3289 137.271 88.4803C136.927 88.6316 136.531 88.7985 136.167 88.9653C135.975 89.041 135.809 89.1218 135.634 89.2044C135.295 89.354 134.963 89.5105 134.63 89.6671C134.536 89.7135 134.437 89.7531 134.355 89.7995C134.016 89.9629 133.677 90.1246 133.345 90.2931C133.07 90.4256 132.806 90.558 132.535 90.6973C122.998 95.5598 114.877 102.363 108.831 110.556C95.3119 128.715 94.6905 148.74 94.6655 150.514L94.6328 150.462C93.0148 141.062 90.5388 132.918 87.4279 125.866L87.6722 125.149L87.2471 125.445C87.2471 125.445 87.2471 125.445 87.2471 125.433C87.8569 113.491 90.4715 103.506 94.2211 95.1711L94.5731 95.2416C94.5039 95.1126 94.4346 94.9801 94.3653 94.8529C100.918 80.5012 110.853 71.0893 119.67 65.1192C130.059 58.0879 138.922 55.8106 138.922 55.8106C143.655 61.0394 144.732 77.0182 144.959 85.6251Z" stroke="#CCDDE2" stroke-width="0.84164" stroke-miterlimit="10"/>
<path d="M145.588 147.404C144.208 147.156 142.856 146.86 141.533 146.516C136.104 145.097 129.797 142.676 127.635 137.585C127.094 136.269 126.923 134.855 127.138 133.467C127.353 132.078 127.947 130.759 128.868 129.624C129.843 128.415 131.215 127.505 132.793 127.022C136.227 126.03 140.026 127.576 142.573 129.863C145.121 132.151 146.76 135.096 148.755 137.786C146.95 134.174 145.119 130.457 144.871 126.508C144.678 123.429 145.613 120.09 147.987 117.777C150.173 115.648 155.282 113.981 158.291 115.541C160.277 116.573 161.069 118.768 161.41 120.797C162.345 126.351 161.144 131.995 159.95 137.509C160.752 134.561 161.614 131.585 163.249 128.926C164.884 126.267 167.391 123.917 170.602 122.932C172.851 122.244 175.521 122.318 177.405 123.62C179.161 124.824 179.946 126.876 180.189 128.847C180.593 132.153 179.723 135.505 178.226 138.548C172.641 149.905 157.152 149.468 145.588 147.404Z" fill="white"/>
<path d="M158.189 141.781C158.189 141.781 166.799 143.919 169.838 133.221Z" fill="white"/>
<path d="M154.359 123.52C151.966 128.37 154.359 142.923 154.359 142.923Z" fill="white"/>
<path d="M146.381 141.451C146.021 141.396 142.568 140.964 139.624 139.755C137.344 138.819 135.369 137.416 135.369 135.362" fill="white"/>
<path d="M140.315 135.364C140.315 135.364 136.95 138.871 139.624 139.757Z" fill="white"/>
<path d="M138.081 142.948C138.56 142.352 141.052 143.546 142.679 140.737Z" fill="white"/>
<path d="M153.295 129.941C152.445 129.37 150.217 129.941 149.89 125.374Z" fill="white"/>
<path d="M153.666 134.22C153.666 134.22 157.391 133.016 157.391 130.41Z" fill="white"/>
<path d="M161.672 141.843C161.672 141.843 163.615 137.359 164.413 135.362Z" fill="white"/>
<path d="M167.705 137.559C167.705 137.559 169.838 139.071 172.391 136.645Z" fill="white"/>
<path d="M167.705 135.364C167.705 135.364 166.327 134.829 166.966 131.752Z" fill="white"/>
<path d="M145.588 147.404C144.195 147.232 142.854 146.862 141.533 146.517C136.104 145.098 129.797 142.676 127.635 137.585C127.094 136.269 126.923 134.855 127.138 133.467C127.353 132.078 127.947 130.759 128.868 129.624C129.843 128.415 131.215 127.505 132.793 127.022C136.227 126.03 140.026 127.576 142.573 129.863C145.121 132.151 146.76 135.096 148.755 137.786C146.95 134.174 145.119 130.457 144.871 126.508C144.678 123.429 145.613 120.09 147.987 117.777C150.173 115.648 155.282 113.981 158.291 115.541C160.277 116.573 161.069 118.768 161.41 120.797C162.345 126.351 161.144 131.995 159.95 137.509C160.752 134.561 161.614 131.585 163.249 128.926C164.884 126.267 167.391 123.917 170.602 122.932C172.851 122.244 175.521 122.318 177.405 123.62C179.161 124.824 179.946 126.876 180.189 128.847C180.593 132.153 179.775 135.527 178.226 138.548C172.551 149.606 156.943 148.77 145.588 147.404Z" stroke="#CCDDE2" stroke-width="0.84164" stroke-miterlimit="10"/>
<path d="M158.189 141.781C158.189 141.781 166.799 143.919 169.838 133.221" stroke="#CCDDE2" stroke-width="0.84164" stroke-miterlimit="10"/>
<path d="M154.359 123.52C151.966 128.37 154.359 142.923 154.359 142.923" stroke="#CCDDE2" stroke-width="0.84164" stroke-miterlimit="10"/>
<path d="M146.381 141.451C146.021 141.396 142.568 140.964 139.624 139.755C137.344 138.819 135.369 137.416 135.369 135.362" stroke="#CCDDE2" stroke-width="0.84164" stroke-miterlimit="10"/>
<path d="M140.315 135.364C140.315 135.364 136.95 138.871 139.624 139.757" stroke="#CCDDE2" stroke-width="0.84164" stroke-miterlimit="10"/>
<path d="M138.081 142.948C138.56 142.352 141.052 143.546 142.679 140.737" stroke="#CCDDE2" stroke-width="0.84164" stroke-miterlimit="10"/>
<path d="M153.295 129.941C152.445 129.37 150.217 129.941 149.89 125.374" stroke="#CCDDE2" stroke-width="0.84164" stroke-miterlimit="10"/>
<path d="M153.666 134.22C153.666 134.22 157.391 133.016 157.391 130.41" stroke="#CCDDE2" stroke-width="0.84164" stroke-miterlimit="10"/>
<path d="M161.672 141.843C161.672 141.843 163.615 137.359 164.413 135.362" stroke="#CCDDE2" stroke-width="0.84164" stroke-miterlimit="10"/>
<path d="M167.705 137.559C167.705 137.559 169.838 139.071 172.391 136.645" stroke="#CCDDE2" stroke-width="0.84164" stroke-miterlimit="10"/>
<path d="M167.705 135.364C167.705 135.364 166.327 134.829 166.966 131.752" stroke="#CCDDE2" stroke-width="0.84164" stroke-miterlimit="10"/>
<path d="M168.292 108.606C170.012 109.931 171.547 111.437 172.865 113.09C175.286 116.05 176.657 119.593 176.797 123.259" stroke="#CCDDE2" stroke-width="0.84164" stroke-miterlimit="10"/>
<path d="M108.292 47.9674C111.755 46.1029 115.366 44.4465 119.206 43.2769C128.781 40.3529 139.457 41.0014 147.043 47.4187C153.618 52.976 156.727 61.232 157.362 69.144C157.362 69.2593 157.383 69.3814 157.389 69.5035C157.68 73.5799 157.441 78.0811 157.408 82.5858" stroke="#CCDDE2" stroke-width="0.84164" stroke-miterlimit="10"/>
<path d="M32.8096 82.3364C33.6773 77.3845 32.6172 72.7268 32.0401 67.6304C30.5549 54.352 35.2779 38.4644 52.3868 36.4778C61.6829 35.3942 69.2283 38.4988 75.5135 44.4534C76.9256 45.7898 78.3377 47.3602 79.8326 48.8772" stroke="#CCDDE2" stroke-width="0.84164" stroke-miterlimit="10"/>
<path d="M26.1377 126.19C26.1377 126.19 13.1805 121.088 14.4772 111.502C14.8389 108.797 16.2645 106.377 18.0652 104.153" stroke="#CCDDE2" stroke-width="0.84164" stroke-miterlimit="10"/>
<path d="M143.166 132.581C142.673 132.263 142.16 131.962 141.627 131.676C136.306 128.861 129.055 127.768 122.975 127.442C122.604 127.418 122.238 127.4 121.877 127.387C121.397 127.368 120.929 127.256 120.503 127.058C120.062 126.859 119.679 126.571 119.383 126.217C119.085 125.169 118.727 124.136 118.31 123.121L117.456 119.681C117.137 118.686 116.887 117.675 116.707 116.652C115.822 111.48 115.168 105.052 114.937 102.646C114.965 102.657 114.994 102.664 115.024 102.669L117.665 103.425C117.675 103.425 117.685 103.425 117.694 103.425L118.631 103.671C122.263 104.593 126.074 105.285 129.859 105.359C133.426 105.426 137.339 104.903 140.386 103.138C140.643 102.994 140.891 102.839 141.132 102.674C143.483 101.091 145.117 98.6626 146.042 96.1979C147.745 91.639 148.112 86.766 147.11 82.044C146.825 80.7438 146.426 79.4658 145.915 78.2222C144.568 74.9112 142.623 71.8083 140.954 68.5902C140.569 67.8402 140.019 67.0542 139.951 66.2217C139.87 65.2293 140.44 64.2747 140.619 63.3098C140.827 62.1503 140.924 60.9769 140.907 59.8027C140.905 58.4098 140.607 57.0299 140.028 55.7366C139.53 54.6496 138.645 52.8264 137.073 52.8934C136.569 51.4521 135.726 49.7837 134.243 49.5962C133.858 49.5435 133.465 49.6288 133.15 49.8336C133.042 49.6941 132.924 49.5603 132.798 49.4328C132.179 48.8102 131.007 48.2494 130.066 48.5728C128.2 49.2333 129.055 51.5295 129.98 53.2718C129.504 53.1802 129.015 53.1512 128.529 53.1858C127.442 53.2718 126.184 53.664 125.763 54.5997C125.534 55.1157 125.615 56.0462 126.2 56.3386C126.942 56.7015 127.854 56.4607 128.597 56.8013C129.426 57.1831 129.751 58.2065 129.63 58.9805C129.606 59.2839 129.471 59.5719 129.245 59.7992C127.933 60.9723 127.033 57.7352 126.534 57.202C125.857 56.4745 124.864 56.6069 124.158 57.221C122.763 58.425 123.37 60.8502 123.954 62.3053C124.589 63.898 125.415 65.5733 126.732 66.8134C128.924 68.8688 129.164 72.1454 129.743 74.7959C129.982 75.8916 130.211 76.9975 130.395 78.1018C130.761 80.2449 130.973 82.4018 130.78 84.5655C130.732 85.1595 130.546 85.738 130.235 86.2648C129.925 86.7916 129.496 87.2553 128.975 87.6268C128.454 87.9983 127.853 88.2695 127.21 88.4235C126.566 88.5775 125.894 88.6108 125.236 88.5215C123.668 88.3082 121.832 88.0537 119.878 87.7802C119.878 87.7802 119.893 87.7664 119.903 87.763C117.238 86.9529 114.881 86.8531 112.536 86.743C105.92 85.828 99.9792 84.968 99.9792 84.968C99.844 84.9456 99.7217 84.8819 99.6332 84.7878C99.5448 84.6937 99.4957 84.5749 99.4944 84.452L99.4136 77.885C99.8657 78.3804 100.847 78.4492 101.447 78.162C101.686 78.0532 101.882 77.8825 102.01 77.6722C102.138 77.4619 102.192 77.2219 102.165 76.9838V76.9838C102.554 76.9809 102.936 76.8929 103.279 76.7275C103.38 76.6768 103.477 76.6193 103.569 76.5555C103.759 76.4033 103.912 76.218 104.019 76.0109C104.126 75.8039 104.184 75.5794 104.191 75.3515C104.199 75.2256 104.192 75.0993 104.169 74.9748C104.169 74.9284 104.154 74.8836 104.144 74.8338C104.123 74.7374 104.098 74.6428 104.067 74.5414C104.052 74.4829 104.033 74.4244 104.012 74.3694C103.962 74.1974 103.906 74.0254 103.864 73.8534C103.886 73.8559 103.908 73.8559 103.931 73.8534C104.121 73.8438 104.309 73.8196 104.495 73.7811C104.671 73.7435 104.843 73.6917 105.008 73.6263C105.101 73.5895 105.192 73.5482 105.279 73.5025C105.295 73.4978 105.308 73.4901 105.32 73.4801C105.469 73.3985 105.61 73.3059 105.741 73.2032C105.786 73.1705 105.828 73.1354 105.868 73.0983C105.943 73.0352 106.015 72.9686 106.082 72.8988C106.168 72.8087 106.248 72.7146 106.322 72.6167C106.358 72.5751 106.391 72.5308 106.418 72.4842C106.685 72.1013 106.88 71.6818 106.996 71.2424C107.005 71.2011 107.017 71.1598 107.026 71.1203C107.411 69.4828 106.834 67.6132 105.226 67.0026C104.904 66.8805 103.765 66.7618 103.765 66.3301C103.766 66.2992 103.771 66.2685 103.781 66.2389C103.779 66.2327 103.779 66.2262 103.781 66.22C103.811 66.1559 103.855 66.0975 103.91 66.048C103.935 66.0205 103.969 65.993 104 65.9654C104.067 65.9121 104.142 65.8622 104.214 65.8106C104.287 65.7675 104.357 65.7204 104.423 65.6696C104.452 65.6485 104.479 65.6261 104.504 65.6025C104.554 65.5526 104.606 65.5028 104.652 65.4529C104.698 65.4037 104.741 65.352 104.779 65.2981C104.82 65.243 104.86 65.188 104.897 65.1261C104.937 65.0718 104.971 65.0142 104.999 64.9541C105.057 64.852 105.104 64.7455 105.141 64.6359C105.206 64.4556 105.247 64.2691 105.262 64.0803C105.262 64.0132 105.262 63.9444 105.262 63.8756C105.262 62.3655 103.885 60.802 102.144 60.6369C101.862 60.6093 101.577 60.6393 101.311 60.7246C101.179 60.7651 101.051 60.8122 100.926 60.8656L100.733 60.9465C100.603 61.0015 100.47 61.06 100.333 61.1185C100.218 61.1675 100.093 61.1956 99.9658 61.201C99.9366 61.2001 99.9076 61.1967 99.8792 61.1907L99.8234 61.177C99.783 61.169 99.7461 61.1504 99.7176 61.1236C99.6838 61.1016 99.6556 61.0735 99.6349 61.0411C99.6175 61.0095 99.6052 60.9759 99.5983 60.9413C99.597 60.9392 99.5963 60.9368 99.5963 60.9344C99.5963 60.932 99.597 60.9296 99.5983 60.9276C99.5886 60.8874 99.5841 60.8465 99.5848 60.8054C99.5846 60.7204 99.5982 60.6358 99.6253 60.5543C99.6796 60.3767 99.7068 60.1933 99.7061 60.0091C99.7058 59.9423 99.7006 59.8757 99.6907 59.8096C99.6809 59.7177 99.6655 59.6264 99.6445 59.5361C99.4561 58.8707 99.0087 58.2871 98.3824 57.89C96.6183 56.7755 93.3112 56.7703 92.3992 58.836C92.38 58.867 92.3704 58.8997 92.355 58.9306C92.2376 58.8085 92.1203 58.6812 92.0029 58.554C91.9217 58.5072 91.8369 58.4659 91.749 58.4301C90.5273 57.9537 88.7785 58.1584 87.8878 59.0906C87.149 59.8646 86.9066 61.06 87.5627 61.9372C87.1948 61.5123 86.6959 61.1931 86.1275 61.0187C86.1954 61.1889 86.2858 61.3511 86.3968 61.502C86.3447 61.4387 86.2888 61.3778 86.2294 61.3197C86.1833 61.2733 86.1371 61.232 86.0909 61.1924C86.0447 61.1529 85.9793 61.0961 85.9235 61.0548C85.8677 61.0136 85.8062 60.9688 85.7465 60.9276C84.6019 60.1776 82.9166 60.1002 81.8488 61.0376C81.0139 61.7704 80.8407 62.7834 81.137 63.7656C81.4333 64.7477 82.1432 65.4305 82.6761 66.2768C80.8696 66.6827 79.4248 68.4732 79.9942 70.1519C80.1131 70.4992 80.3215 70.8166 80.6024 71.0789C80.8834 71.3412 81.2292 71.5409 81.6122 71.6621C81.7493 71.6928 81.8889 71.7141 82.0297 71.7257C82.0767 71.73 82.1222 71.743 82.1634 71.7637C82.2046 71.7845 82.2406 71.8126 82.2691 71.8463C82.2977 71.88 82.3181 71.9187 82.3292 71.9598C82.3403 72.0009 82.3418 72.0436 82.3336 72.0852C82.3049 72.1981 82.2901 72.3134 82.2894 72.4292C82.2905 72.7063 82.3715 72.9785 82.5245 73.2195C82.6775 73.4605 82.8973 73.6622 83.1628 73.8052C83.2022 73.8249 83.2367 73.8515 83.2642 73.8836C83.2917 73.9156 83.3115 73.9524 83.3225 73.9915C83.3335 74.0307 83.3354 74.0714 83.3281 74.1112C83.3208 74.1511 83.3045 74.1892 83.2802 74.2232C83.0127 74.5633 82.8556 74.9628 82.826 75.3777C82.7965 75.7926 82.8957 76.2067 83.1128 76.5744C83.7073 77.6391 85.1636 78.5627 86.5372 78.1981C86.9792 78.0783 87.3616 77.8263 87.6204 77.4843C87.6481 77.4584 87.672 77.4295 87.6916 77.3983C87.6966 77.388 87.7038 77.3786 87.7127 77.3708C87.9106 77.1067 88.0419 76.8074 88.0975 76.4936C88.4359 76.9733 88.8147 77.4292 89.2307 77.8575L89.4808 78.1069L88.7208 82.2968L88.6092 83.0519C88.568 83.3132 88.4227 83.5523 88.2001 83.7255C87.9774 83.8987 87.6923 83.9942 87.3972 83.9945C87.2298 83.9945 87.0567 83.9945 86.8893 83.9945C86.5488 83.9945 86.2121 84.0031 85.8774 84.0117C84.8596 84.034 83.8458 84.0753 82.8338 84.1304C82.0643 84.1751 81.3121 84.225 80.556 84.2852C80.1712 84.3127 79.8018 84.3436 79.4209 84.3798C79.04 84.4159 78.6629 84.4486 78.2858 84.4847C77.549 84.5586 76.8064 84.6343 76.0676 84.722C75.1769 84.827 74.2919 84.9353 73.4011 85.0488C72.0083 85.2312 70.6193 85.4307 69.2245 85.6457C67.8662 85.8555 66.5137 86.074 65.1555 86.2958C63.247 86.6106 61.3193 86.8738 59.3839 87.1558C58.8757 87.2292 58.3559 87.2048 57.859 87.0842C57.3622 86.9637 56.8999 86.7497 56.503 86.4567C56.106 86.1637 55.7835 85.7983 55.5571 85.3849C55.3307 84.9716 55.2055 84.5199 55.1899 84.0598C54.9725 78.3838 58.5682 68.0312 58.5682 68.0312C58.6509 67.2262 59.7225 66.6552 60.3497 66.1976C62.1447 64.93 63.2047 62.6596 63.8242 60.7487C64.2628 59.3847 64.6784 57.4377 63.3875 56.3197C62.6795 55.7056 61.6868 55.5732 61.0115 56.3008C60.5132 56.8374 59.6129 60.071 58.2989 58.898C58.0729 58.6706 57.9376 58.3827 57.9141 58.0792C57.8006 57.307 58.1065 56.2836 58.9453 55.9C59.6879 55.556 60.5998 55.8002 61.3424 55.4373C61.9196 55.1449 62.0081 54.2092 61.7791 53.6984C61.3578 52.7627 60.1015 52.3706 59.0126 52.2846C58.527 52.2499 58.0383 52.2789 57.562 52.3706C58.4874 50.6282 59.3435 48.332 57.4755 47.6732C56.5347 47.3413 55.3592 47.9003 54.7436 48.5229C54.6185 48.6505 54.5015 48.7843 54.3934 48.9237C54.0774 48.7195 53.6843 48.6342 53.2988 48.6863C51.8078 48.8738 50.9747 50.5422 50.4707 51.9853C48.9143 51.9165 48.0332 53.7053 47.5291 54.7906C46.9579 56.0407 46.6544 57.3757 46.6345 58.726C46.5864 60.1624 46.6999 61.5995 46.9731 63.0156C47.1001 63.6262 47.329 64.2076 47.4926 64.8044C47.6715 65.4546 47.4772 66.0996 47.2136 66.7102C46.1805 69.0477 44.7241 71.2355 43.6314 73.5558C42.4465 76.0114 41.4966 78.5523 40.7918 81.1513C39.4335 86.2821 39.1546 91.7224 40.7417 96.8394C43.743 106.509 58.9491 103.334 67.6604 100.623C71.3022 99.4917 73.8167 98.4356 73.8167 98.4356C73.8167 98.4356 73.8359 99.1855 73.8359 100.455V100.627C73.8263 102.347 73.6589 116.069 71.0733 126.145L70.9867 126.277C71.0079 126.263 71.0483 126.263 71.0733 126.386C70.9313 126.661 70.7038 126.894 70.418 127.056C70.1322 127.219 69.8 127.305 69.4611 127.304C63.2701 127.282 37.1999 128.068 42.1423 143.128C43.0677 145.957 45.484 147.772 48.8758 148.845C51.5692 149.705 54.8802 150.079 58.547 150.106H58.5721C51.4038 151.32 49.7358 160.854 57.7332 162.296C60.8114 162.85 63.249 161.068 66.0155 160.307C67.5966 159.89 69.2428 159.703 70.8905 159.754C71.9658 159.777 73.0381 159.866 74.0995 160.022C85.7216 161.723 97.5154 162.296 109.275 161.732C117.227 161.341 125.332 160.448 132.877 158.07C138.564 156.274 144.805 153.132 147.606 148.266C148.599 146.553 149.112 144.651 149.101 142.722C149.093 138.138 146.723 134.877 143.166 132.581Z" fill="white"/>
<path d="M23.198 148.587L22.9075 148.341" stroke="#CCDDE2" stroke-width="0.84164" stroke-miterlimit="10"/>
<path d="M118.316 122.87L117.459 119.421C117.141 118.426 116.892 117.415 116.713 116.392C115.828 111.22 115.174 104.794 114.941 102.388L117.7 103.174L116.738 101.26C116.738 101.26 113.569 91.7259 119.908 87.5274C115.324 86.1325 111.651 86.8497 107.361 85.9673C105.708 85.6233 103.964 85.3223 102.036 85.0403L100.641 84.8218C100.585 88.2102 97.9476 88.9791 95.7775 89.3471C90.435 90.2622 86.7354 86.7775 86.8893 83.7434C80.9581 83.8036 75.0961 84.5036 69.2264 85.3946C69.9844 87.3829 71.5812 93.341 67.089 100.386L67.6661 100.369C71.308 99.2354 73.8225 98.1811 73.8225 98.1811C73.8225 98.1811 73.8436 98.931 73.8436 100.2V100.372C73.834 102.082 73.6666 115.814 71.081 125.889C70.8886 126.217 71.0386 125.813 71.081 126.177C70.924 126.457 70.8163 126.757 70.7616 127.067L70.8867 126.621C70.1902 127.514 71.9332 128.596 74.4516 129.141C81.035 130.579 117.325 133.097 119.374 127.067C119.494 126.707 119.498 126.324 119.385 125.962C119.087 124.916 118.73 123.884 118.316 122.87V122.87Z" fill="#353642"/>
<path d="M70.8885 159.494C69.2426 159.445 67.5986 159.632 66.0193 160.049C63.2508 160.808 60.8095 162.592 57.7351 162.036C49.7377 160.595 51.4076 151.061 58.5759 149.846C59.2627 149.833 59.9495 149.829 60.6305 149.829H60.6767C63.9781 149.829 67.1947 149.907 69.8343 149.091C69.5861 149.296 63.1546 154.396 70.8885 159.494Z" fill="#3FBDF1"/>
<path d="M100.635 84.8149V84.8235C100.579 88.2119 97.9418 88.9808 95.7717 89.3488C90.4291 90.2639 86.7296 86.7792 86.8835 83.7451" stroke="black" stroke-width="0.84164" stroke-miterlimit="10"/>
<path d="M58.5816 149.846C51.4133 151.061 49.7434 160.595 57.7409 162.036C60.819 162.592 63.2566 160.808 66.025 160.049C67.6056 159.632 69.2509 159.444 70.8981 159.494C71.9711 159.52 73.0407 159.613 74.0994 159.771C85.7212 161.475 97.5149 162.052 109.275 161.491C117.227 161.099 125.33 160.208 132.875 157.829C138.564 156.032 144.803 152.889 147.604 148.025C148.598 146.312 149.11 144.409 149.099 142.48C149.099 137.891 146.723 134.63 143.174 132.332C142.679 132.013 142.166 131.714 141.635 131.427C136.313 128.611 129.064 127.519 122.985 127.192C122.613 127.17 122.246 127.151 121.886 127.137C121.407 127.12 120.938 127.008 120.513 126.81C120.071 126.612 119.687 126.324 119.393 125.969C119.106 125.633 118.905 125.245 118.802 124.832L118.319 122.872L117.463 119.423L116.713 116.392C115.828 111.22 115.174 104.794 114.941 102.388" stroke="black" stroke-width="0.84164" stroke-miterlimit="10"/>
<path d="M125.499 145.221C123.127 150.07 117.261 148.41 110.816 144.92C106.817 142.755 103.404 142.447 101.389 142.512C104.229 142.285 106.711 141.503 107.409 138.632C107.973 136.3 106.503 134.16 103.96 133.472C110.074 133.231 116.347 133.644 121.322 137.084C121.326 137.084 127.875 140.367 125.499 145.221Z" fill="#3FBDF1"/>
<path d="M103.919 73.5816C103.898 73.5841 103.876 73.5841 103.854 73.5816C103.913 73.8499 104.027 74.1372 104.102 74.4227C104.162 74.6385 104.188 74.8609 104.179 75.0832C104.098 76.1238 103.273 76.6879 102.153 76.7154C102.182 76.9542 102.128 77.1951 102.001 77.4064C101.873 77.6176 101.677 77.7893 101.437 77.8988C100.837 78.1809 99.8541 78.1173 99.402 77.6202C98.8672 77.044 99.1327 76.3285 99.4578 75.6972C99.5752 75.4753 99.6925 75.2655 99.7887 75.0746C99.9061 74.8372 100.008 74.6016 100.098 74.3608C100.419 73.4697 100.667 72.5592 100.841 71.6363C101.054 70.7041 101.195 69.7598 101.262 68.8103C101.191 68.5798 101.237 68.2462 101.135 68.0054C100.987 67.6337 100.719 67.3094 100.366 67.0731C99.6348 66.5915 98.6613 66.6225 97.8841 66.1959C97.1804 65.8041 96.6252 65.2316 96.2912 64.5533C96.2257 64.4123 96.1642 64.23 96.0718 64.0717C96.0306 63.9858 95.9681 63.9093 95.8891 63.8481C95.5389 63.585 95.335 64.0494 95.1195 64.23C94.8987 64.4123 94.6369 64.5505 94.3516 64.6353C94.0663 64.7202 93.7641 64.7497 93.465 64.7219V64.7219C93.2389 64.6952 93.0189 64.6372 92.8128 64.5499C92.6615 64.4764 92.5201 64.3875 92.3915 64.285C92.2387 64.1521 92.0609 64.0444 91.8663 63.9668C91.5008 63.8447 91.4815 64.3848 91.4296 64.5722C91.3948 64.7343 91.3195 64.8872 91.2092 65.0194C91.0989 65.1517 90.9565 65.2599 90.7928 65.3359C90.5951 65.4228 90.3782 65.4692 90.1579 65.4718C89.9012 65.4811 89.6447 65.4502 89.3999 65.3806C89.1635 65.3179 88.9386 65.2246 88.7323 65.1037C88.6953 65.0815 88.6521 65.0689 88.6075 65.0675C88.5629 65.0661 88.5188 65.0759 88.4801 65.0957C88.4415 65.1156 88.4098 65.1448 88.3887 65.18C88.3677 65.2151 88.3581 65.2549 88.361 65.2946C88.4322 67.0731 86.5718 67.6923 85.8081 67.8746C85.5514 70.8099 86.3538 73.7414 88.0975 76.239C88.033 76.6004 87.8683 76.9416 87.6184 77.2314C86.3621 77.5135 84.9115 77.2074 84.3671 76.239C83.7899 75.207 83.8688 73.7777 84.7653 73.0415C84.1439 72.9555 83.9708 72.1351 84.3267 71.6535C84.3575 71.607 84.3709 71.5795 84.3517 71.5348C84.2747 71.3473 83.3609 71.1908 83.1108 71.122C82.7539 71.0081 82.4318 70.8213 82.1699 70.5765C81.908 70.3316 81.7138 70.0354 81.6025 69.7116C81.0734 68.1516 82.4163 66.4866 84.0939 66.1099C83.5956 65.3222 82.9396 64.6858 82.6606 63.7759C82.3817 62.866 82.5394 61.92 83.3167 61.232C83.6329 60.9632 84.0191 60.7692 84.4404 60.6677C84.8617 60.5662 85.3047 60.5603 85.7292 60.6506C85.9767 60.8115 86.1959 61.0045 86.3794 61.2234C86.2665 61.0741 86.176 60.9122 86.1101 60.7418C86.6794 60.9146 87.1788 61.2342 87.5453 61.6603C86.8893 60.7831 87.1336 59.586 87.8704 58.812C88.7612 57.8797 90.5119 57.675 91.7316 58.1532C91.8199 58.1887 91.9054 58.2295 91.9875 58.2753C92.1029 58.4043 92.2203 58.5316 92.3376 58.6537C92.3506 58.6207 92.366 58.5885 92.3838 58.5574C92.6315 58.785 92.8658 59.0238 93.086 59.2729C93.8786 57.2571 97.028 57.2519 98.6921 58.3028C99.0841 58.5529 99.405 58.8816 99.6291 59.2626C99.7134 59.5975 99.7062 59.9456 99.6079 60.2774C99.5059 60.5956 99.5867 60.8364 99.8157 60.9052C99.9878 60.9427 100.169 60.9218 100.325 60.8467C100.935 60.6008 101.439 60.2998 102.147 60.3686C104.456 60.587 106.139 63.2702 104.772 65.0212C104.69 65.1299 104.598 65.2318 104.496 65.3256C104.304 65.4976 103.871 65.6988 103.775 65.9448C103.772 65.9509 103.772 65.9577 103.775 65.9637C103.602 66.4797 104.879 66.595 105.22 66.7274C108.236 67.8643 107.6 73.4096 103.919 73.5816Z" fill="#3FBDF1"/>
<path d="M51.4749 59.5963C50.7573 58.2306 51.2825 56.3163 52.1001 54.8697C52.7254 53.7466 52.2271 51.9457 50.6303 51.7445C48.9719 51.545 48.0446 53.4146 47.5271 54.5429C46.9548 55.7934 46.6507 57.129 46.6306 58.48C46.5881 59.9168 46.7061 61.3538 46.9827 62.7697C47.1096 63.3786 47.3386 63.9617 47.5002 64.5568C47.6791 65.2069 47.4848 65.8537 47.2212 66.4625C46.1881 68.8 44.7337 70.9879 43.639 73.3081C42.4559 75.7641 41.5066 78.305 40.8013 80.9037C39.4431 86.0344 39.1622 91.4748 40.7494 96.5918C43.7506 106.262 58.9587 103.086 67.668 100.376C71.3098 99.2423 73.8243 98.1879 73.8243 98.1879C73.8243 98.1879 73.8455 98.9379 73.8455 100.207C73.8455 100.266 73.8455 100.326 73.8455 100.379C73.857 105.482 73.6281 118.305 71.1694 125.923C71.063 126.251 70.8395 126.54 70.5328 126.745C70.2262 126.949 69.8532 127.059 69.4706 127.056C63.2797 127.034 37.2114 127.82 42.1519 142.872C43.8218 147.956 50.2879 149.785 58.5489 149.848H58.5854C59.2569 149.848 59.9437 149.848 60.6401 149.831H60.6863C63.755 149.736 66.8155 149.488 69.8535 149.09C80.6155 147.734 92.0664 144.841 99.4636 142.757C99.8901 142.656 100.326 142.591 100.766 142.562C100.949 142.543 101.151 142.53 101.378 142.521H101.397C103.407 142.449 106.82 142.757 110.824 144.929C117.269 148.419 123.137 150.079 125.507 145.23C127.877 140.381 121.326 137.084 121.326 137.084C116.351 133.644 110.077 133.236 103.963 133.472C102.076 133.546 100.198 133.687 98.3843 133.816C91.1237 134.333 83.8617 134.849 76.5985 135.364L67.0831 136.052" stroke="black" stroke-width="0.84164" stroke-miterlimit="10"/>
<path d="M54.0625 58.6847C54.0625 58.6847 53.0256 56.8116 54.3088 53.8824C54.8379 52.6784 55.4477 51.2216 55.1976 49.9024C55.1193 49.414 54.8291 48.9728 54.3896 48.6743C54.0737 48.4698 53.6803 48.3851 53.2949 48.4387C51.8059 48.6244 50.9709 50.2945 50.4669 51.7359" stroke="black" stroke-width="0.84164" stroke-miterlimit="10"/>
<path d="M56.2287 57.5976C56.2287 57.5976 55.2437 56.1064 56.5865 53.8136C56.8116 53.4318 57.1926 52.8212 57.5485 52.1263C58.4758 50.384 59.33 48.0878 57.4619 47.4273C56.5211 47.0953 55.3457 47.6543 54.73 48.2787C54.6049 48.4056 54.488 48.5389 54.3799 48.6777" stroke="black" stroke-width="0.84164" stroke-miterlimit="10"/>
<path d="M57.5543 52.116C58.0304 52.0235 58.5192 51.9945 59.0049 52.03C60.0938 52.116 61.35 52.5064 61.7733 53.4438C62.0022 53.9598 61.9195 54.8904 61.3347 55.181C60.592 55.5457 59.6821 55.3049 58.9395 55.6454C58.1103 56.0273 57.7851 57.0507 57.9063 57.8247C57.9299 58.1281 58.0652 58.416 58.2911 58.6434C59.6032 59.8164 60.5035 56.5794 61.0018 56.0462C61.679 55.3186 62.6698 55.4494 63.3778 56.0634C64.6706 57.1814 64.2531 59.1267 63.8126 60.4924C63.195 62.4033 62.135 64.6737 60.3496 65.9396C59.7109 66.3903 58.6489 66.9716 58.5681 67.7766C58.5681 67.7766 54.9725 78.1224 55.1879 83.8035C55.2036 84.2634 55.3287 84.715 55.555 85.1282C55.7813 85.5414 56.1036 85.9067 56.5003 86.1997C56.8971 86.4927 57.3592 86.7066 57.8557 86.8273C58.3523 86.948 58.872 86.9726 59.38 86.8995C61.3039 86.6192 63.2393 86.356 65.1516 86.0395C66.5098 85.8177 67.8623 85.5992 69.2205 85.3894C75.2595 84.4709 81.2889 83.7571 87.3933 83.733C87.6884 83.7335 87.9736 83.6385 88.1964 83.4655C88.4192 83.2926 88.5644 83.0534 88.6053 82.7922L88.7208 82.044L89.4807 77.8455" stroke="black" stroke-width="0.84164" stroke-miterlimit="10"/>
<path d="M136.065 60.5062C136.783 59.1405 136.257 57.2261 135.44 55.7796C134.809 54.6564 135.313 52.8556 136.91 52.6544C136.965 52.6544 137.021 52.6458 137.073 52.6458C138.645 52.577 139.53 54.4019 140.028 55.4889C140.607 56.7821 140.906 58.162 140.909 59.555C140.924 60.7293 140.827 61.9026 140.619 63.0621C140.442 64.0253 139.87 64.9816 139.953 65.9723C140.019 66.8048 140.569 67.5926 140.955 68.3425C142.623 71.5537 144.576 74.6549 145.915 77.9745C146.426 79.2176 146.825 80.495 147.11 81.7946C148.115 86.5153 147.751 91.3877 146.052 95.9468C145.124 98.4132 143.493 100.842 141.142 102.424C140.898 102.588 140.649 102.743 140.394 102.889C137.346 104.653 133.433 105.176 129.868 105.107C126.082 105.035 122.273 104.344 118.639 103.42C118.004 103.257 117.372 103.085 116.742 102.904C116.08 102.717 115.424 102.526 114.768 102.326C114.081 102.113 113.394 101.898 112.713 101.671" stroke="black" stroke-width="0.84164" stroke-miterlimit="10"/>
<path d="M137.073 52.6457C136.569 51.2044 135.726 49.5343 134.245 49.3485C133.86 49.295 133.466 49.3797 133.15 49.5841C132.711 49.8826 132.421 50.3238 132.342 50.8122C132.092 52.1315 132.702 53.5866 133.231 54.7923C134.514 57.7163 133.476 59.5963 133.476 59.5963" stroke="black" stroke-width="0.84164" stroke-miterlimit="10"/>
<path d="M133.15 49.5842C133.043 49.4431 132.921 49.3124 132.8 49.1834C132.179 48.5608 131.009 48.0018 130.066 48.3337C128.2 48.9925 129.054 51.2904 129.982 53.0328C130.347 53.7208 130.728 54.3383 130.944 54.7201C132.29 57.0163 131.3 58.5041 131.3 58.5041" stroke="black" stroke-width="0.84164" stroke-miterlimit="10"/>
<path d="M129.982 53.0328C129.506 52.9405 129.017 52.911 128.531 52.9451C127.442 53.0328 126.186 53.4232 125.763 54.3606C125.534 54.8766 125.617 55.8072 126.201 56.0978C126.944 56.4625 127.854 56.22 128.597 56.5622C129.426 56.9441 129.751 57.9675 129.63 58.7415C129.606 59.0449 129.471 59.3328 129.245 59.5602C127.933 60.7332 127.032 57.4962 126.534 56.963C125.857 56.2337 124.866 56.3662 124.158 56.9802C122.763 58.1842 123.369 60.6094 123.954 62.0662C124.591 63.6572 125.415 65.3342 126.732 66.5726C128.926 68.6366 129.164 71.9046 129.745 74.5551C129.984 75.6525 130.213 76.7567 130.395 77.8627C130.761 80.0041 130.973 82.1627 130.78 84.3265C130.731 84.9205 130.545 85.4991 130.235 86.0259C129.924 86.5527 129.494 87.0164 128.974 87.3878C128.453 87.7593 127.852 88.0305 127.208 88.1845C126.565 88.3384 125.892 88.3718 125.234 88.2825C116.63 87.1043 99.9792 84.7117 99.9792 84.7117C99.8429 84.6907 99.7193 84.6275 99.6299 84.5332C99.5406 84.4388 99.4912 84.3194 99.4905 84.1957L99.4097 77.6271" stroke="black" stroke-width="0.84164" stroke-miterlimit="10"/>
<path d="M85.8003 67.8695C85.4483 71.2527 86.7622 75.078 89.2248 77.5995C93.819 82.2968 97.6898 77.5995 97.6898 77.5995" stroke="black" stroke-width="0.84164" stroke-miterlimit="10"/>
<path d="M101.312 68.9187C101.178 68.6951 101.257 68.2909 101.141 68.0071C100.992 67.6353 100.725 67.3107 100.372 67.0731C99.6367 66.5932 98.6652 66.6225 97.8899 66.1994C97.1857 65.8055 96.6296 65.2322 96.2931 64.5533C96.1853 64.3366 96.1007 64.0064 95.8948 63.8498C95.5428 63.5867 95.3388 64.0494 95.1253 64.2317C94.8206 64.4856 94.4376 64.6518 94.026 64.7088C93.6143 64.7659 93.1931 64.7111 92.8167 64.5516C92.4704 64.3985 92.2299 64.0906 91.8682 63.9685C91.5065 63.8464 91.4834 64.3848 91.4296 64.574C91.3951 64.7358 91.3203 64.8887 91.2107 65.0212C91.1012 65.1537 90.9596 65.2625 90.7966 65.3394C90.1598 65.6197 89.2902 65.4357 88.7361 65.1037C88.699 65.0808 88.6554 65.0678 88.6103 65.0662C88.5652 65.0646 88.5205 65.0744 88.4814 65.0946C88.4424 65.1148 88.4105 65.1444 88.3895 65.1801C88.3685 65.2159 88.3593 65.2562 88.3629 65.2964C88.4495 67.5324 85.4868 67.9331 85.4868 67.9331" stroke="black" stroke-width="0.84164" stroke-miterlimit="10"/>
<path d="M89.9809 72.7904C91.4621 72.7904 92.6628 71.7169 92.6628 70.3927C92.6628 69.0685 91.4621 67.9951 89.9809 67.9951C88.4998 67.9951 87.2991 69.0685 87.2991 70.3927C87.2991 71.7169 88.4998 72.7904 89.9809 72.7904Z" stroke="black" stroke-width="0.84164" stroke-miterlimit="10"/>
<path d="M96.9319 72.5771C98.413 72.5771 99.6137 71.5036 99.6137 70.1794C99.6137 68.8552 98.413 67.7817 96.9319 67.7817C95.4507 67.7817 94.25 68.8552 94.25 70.1794C94.25 71.5036 95.4507 72.5771 96.9319 72.5771Z" stroke="black" stroke-width="0.84164" stroke-miterlimit="10"/>
<path d="M88.8593 70.6335C88.8593 70.6335 89.9405 71.7429 91.0525 70.6335" stroke="black" stroke-width="0.84164" stroke-miterlimit="10"/>
<path d="M95.8391 70.6335C95.8391 70.6335 96.9203 71.7429 98.0342 70.6335" stroke="black" stroke-width="0.84164" stroke-miterlimit="10"/>
<path d="M93.7786 75.9225C94.3003 75.9225 94.7232 75.5444 94.7232 75.078C94.7232 74.6116 94.3003 74.2335 93.7786 74.2335C93.2569 74.2335 92.834 74.6116 92.834 75.078C92.834 75.5444 93.2569 75.9225 93.7786 75.9225Z" stroke="black" stroke-width="0.84164" stroke-miterlimit="10"/>
<path d="M92.6628 70.3927C92.6628 70.3927 93.2707 69.5069 94.25 70.1794" stroke="black" stroke-width="0.84164" stroke-miterlimit="10"/>
<path d="M91.4296 66.8341C91.4296 66.8341 88.6457 64.9317 86.3121 66.7257" stroke="black" stroke-width="0.84164" stroke-miterlimit="10"/>
<path d="M99.5752 65.8364C99.5752 65.8364 96.2681 64.8044 94.6713 67.1522" stroke="black" stroke-width="0.84164" stroke-miterlimit="10"/>
<path d="M88.0089 76.1564C88.0025 76.5551 87.8559 76.9418 87.5901 77.2619C87.3242 77.582 86.9525 77.8192 86.5276 77.9401C85.1539 78.303 83.6995 77.3811 83.1031 76.3164C82.8857 75.9484 82.7865 75.5338 82.8164 75.1186C82.8462 74.7033 83.0041 74.3035 83.2724 73.9634C83.2964 73.9294 83.3123 73.8914 83.3193 73.8516C83.3263 73.8119 83.3241 73.7713 83.3129 73.7324C83.3018 73.6934 83.2818 73.6569 83.2544 73.6251C83.2269 73.5932 83.1924 73.5667 83.1531 73.5472C82.8861 73.4036 82.6653 73.2005 82.5122 72.9579C82.3591 72.7152 82.279 72.4412 82.2797 72.1626C82.2803 72.0469 82.2945 71.9316 82.322 71.8186C82.3308 71.7768 82.3297 71.7338 82.3189 71.6924C82.308 71.651 82.2877 71.6121 82.2591 71.5781C82.2305 71.5441 82.1943 71.5158 82.1528 71.495C82.1113 71.4743 82.0654 71.4614 82.018 71.4574C81.878 71.446 81.7391 71.4253 81.6025 71.3955C81.2197 71.2741 80.874 71.0742 80.5931 70.812C80.3122 70.5498 80.1037 70.2324 79.9845 69.8853C79.4074 68.2066 80.8599 66.4144 82.6664 66.0102C82.1277 65.1639 81.414 64.4811 81.1273 63.499C80.8406 62.5168 81.0061 61.502 81.8391 60.7693C83.1377 59.6324 85.3405 59.9867 86.3871 61.2337C85.6811 60.2877 85.9446 58.9977 86.7392 58.1687C87.7011 57.1676 89.5769 56.9492 90.8909 57.4583C91.5161 57.7043 91.9182 58.2134 92.3453 58.6623C93.1995 56.502 96.5778 56.4882 98.3747 57.62C99.3097 58.2168 99.9138 59.2987 99.6156 60.286C99.4578 60.7865 99.7483 61.0858 100.333 60.8553C100.918 60.6248 101.447 60.3084 102.155 60.3772C104.606 60.6094 106.347 63.6108 104.504 65.3342C104.312 65.5165 103.879 65.7074 103.783 65.9534C103.573 66.4694 104.875 66.6036 105.222 66.736C108.265 67.8781 107.598 73.4818 103.875 73.5954C103.987 74.0718 104.241 74.5998 104.2 75.0918C104.119 76.1324 103.294 76.6965 102.174 76.7292C102.202 76.9672 102.148 77.207 102.02 77.4173C101.893 77.6276 101.697 77.7984 101.459 77.9074C100.858 78.1929 99.8753 78.1258 99.4232 77.6288C98.6998 76.8479 99.4424 75.8245 99.808 75.078C100.347 73.9858 100.612 72.8076 100.856 71.638C101.08 70.6689 101.224 69.6864 101.287 68.6985V68.6572" stroke="black" stroke-width="0.84164" stroke-miterlimit="10"/>
<path d="M9.84265 148.587H48.9412" stroke="black" stroke-width="0.84164" stroke-miterlimit="10"/>
<path d="M147.325 148.587H182.99" stroke="black" stroke-width="0.84164" stroke-miterlimit="10"/>
</svg>
