<svg xmlns="http://www.w3.org/2000/svg" xml:space="preserve" width="2000" height="239" data-id="lg_nVSmWj9pHoZFHqkJba" data-version="1" viewBox="0 0 2000 239"><g data-padding="20"><g transform="translate(10 3.108)scale(.974)"><rect width="428.072" height="131.08" x="393.451" y="-355.202" fill="none" rx="0" ry="0" transform="translate(334.54 400.52)"/><path fill="#4cff51" d="M1335.606 238.869h-102.918c-9.34 0-17.67-4.274-21.216-10.894-2.626-4.893-2.335-10.41.806-15.132l28.173-42.432a5.2 5.2 0 0 1 4.852-2.293c.54.052 1.04.078 1.55.078h74.599q.748 0 1.544-.078a5.2 5.2 0 0 1 4.857 2.293l28.173 42.432c3.136 4.722 3.432 10.239.806 15.132-3.546 6.62-11.876 10.894-21.216 10.894m-88.114-60.268-26.566 39.988c-1.02 1.54-1.118 2.959-.307 4.472 1.445 2.694 5.73 5.408 12.053 5.408h102.925c6.318 0 10.608-2.714 12.054-5.408.81-1.513.712-2.933-.312-4.472l-26.557-39.988Z"/><path fill="#4cff51" d="M1321.447 178.596h-74.605q-1.274 0-2.59-.14c-6.858-.687-12.443-4.12-14.586-8.955-1.596-3.61-1.107-7.571 1.342-10.873l22.006-29.723c3.11-4.197 9.178-6.802 15.834-6.802h30.582c6.656 0 12.724 2.605 15.834 6.802l22.01 29.723c2.445 3.302 2.934 7.264 1.338 10.868-2.138 4.836-7.728 8.268-14.581 8.965a26 26 0 0 1-2.59.13m-52.593-46.098c-3.645 0-6.52 1.305-7.472 2.6l-22.012 29.718c-.192.26-.218.4-.218.4.088.624 2.11 2.49 6.146 2.897.54.052 1.04.078 1.55.078h74.6q.748 0 1.549-.078c4.03-.406 6.053-2.273 6.146-2.912 0 0-.036-.136-.223-.385l-22.007-29.723c-.957-1.29-3.827-2.595-7.472-2.595Z"/><path fill="#4cff51" d="M1284.147 132.498c-15.574 0-28.247-13.468-28.247-30.014s12.673-30.02 28.247-30.02 28.246 13.468 28.246 30.02-12.672 30.014-28.246 30.014m0-49.634c-9.844 0-17.847 8.798-17.847 19.62 0 10.82 8.008 19.62 17.847 19.62s17.846-8.804 17.846-19.62-8.008-19.62-17.846-19.62m.005 156.005h-40.773a5.2 5.2 0 1 1 0-10.4h40.768c3.978 0 7.212-3.234 7.212-7.207s-3.234-7.213-7.207-7.213h-40.773a5.2 5.2 0 1 1 0-10.4h40.768c9.723.01 17.603 7.89 17.612 17.613-.011 9.72-7.888 17.596-17.607 17.607m-11.31-74.46h-18.834a5.2 5.2 0 1 1 0-10.4h16.328l9.744-12.22a5.2 5.2 0 0 1 8.133 6.48l-11.3 14.18a5.2 5.2 0 0 1-4.071 1.96"/><path fill="#4cff51" d="M1295.55 164.43a5.2 5.2 0 0 1-4.045-1.933l-11.4-14.113a5.2 5.2 0 1 1 8.092-6.531l9.828 12.173 16.256-.016h.005a5.2 5.2 0 1 1 .01 10.4Z"/><path fill="#4cff51" d="M1361.528 202.464a5.2 5.2 0 0 1-3.61-8.944c21.02-20.244 32.59-47.45 32.59-76.622 0-58.646-47.716-106.36-106.361-106.36-58.651 0-106.366 47.714-106.366 106.36 0 29.172 11.575 56.378 32.588 76.622a5.2 5.2 0 1 1-7.212 7.488A116.5 116.5 0 0 1 1177 163.38a116 116 0 0 1-9.62-46.483 115.96 115.96 0 0 1 34.2-82.56A115.96 115.96 0 0 1 1284.147.132a115.96 115.96 0 0 1 82.565 34.2 115.96 115.96 0 0 1 34.196 82.56c0 16.152-3.235 31.788-9.62 46.484a116.5 116.5 0 0 1-26.156 37.627 5.2 5.2 0 0 1-3.604 1.456m8.242 36.405h-171.6a5.2 5.2 0 1 1 0-10.4h171.6a5.2 5.2 0 1 1 0 10.4"/><path fill="#4cff51" d="M1284.147 67.264a5.2 5.2 0 0 1-5.2-5.2v-26a5.2 5.2 0 1 1 10.4 0v26a5.2 5.2 0 0 1-5.2 5.2"/><rect width="266.616" height="77.97" x="181.452" y="-189.069" fill="none" rx="0" ry="0" transform="translate(281.76 400)scale(1.93)"/><path fill="#4cff51" d="M660.577 151.708h-15.98l19.7-92.96h20.11l20.25 71.78 5.19-30.49 8.79-41.29h15.98l-19.71 92.96h-19.98l-20.77-70.85-4.79 29.56Zm104 1.59q-9.85 0-17.38-3.93-7.52-3.92-11.78-11.12-4.26-7.19-4.26-16.91 0-9.45 2.86-17.58 2.86-8.12 8.19-14.25 5.33-6.12 13.05-9.52 7.72-3.39 17.58-3.39 11.32 0 18.97 4.72 7.66 4.73 10.79 13.32t1 20.31h-59.53l2.53-11.45h41.69q.13-6.39-4-10.26-4.13-3.86-12.12-3.86-8.92 0-14.38 4.53t-7.92 11.65q-2.47 7.13-2.47 14.98 0 6 2.2 10.39 2.2 4.4 6.33 6.86 4.12 2.46 9.58 2.46 8.93 0 14.12-3.86t6.92-9.85h15.99q-2.4 8.12-7.26 14.18t-12.45 9.32-18.25 3.26m65.52-1.59h-18.24l4.26-73.65h13.85l-2.8 40.22-1.6 17.18 7.06-17.18 16.65-40.22h13.98l.27 40.22-.54 17.44 6-17.44 14.11-40.22h14.25l-26.9 73.65h-18.24l-.4-38.22 1.86-20.51-7.06 20.51Zm147.83 0h-15.85l26.64-92.96h20.11l-.67 51.67-1.07 16.65 6.13-16.65 21.84-51.67h20.91l-12.92 92.96h-16.38l8.66-52.47 4.52-22.78-8.52 22.78-22.11 52.47h-13.71v-52.47l1.46-23.18-5.32 23.18Zm109.46 1.59q-9.86 0-17.38-3.93-7.53-3.92-11.79-11.12-4.26-7.19-4.26-16.91 0-9.45 2.86-17.58 2.87-8.12 8.19-14.25 5.33-6.12 13.05-9.52 7.73-3.39 17.58-3.39 11.32 0 18.98 4.72 7.66 4.73 10.79 13.32t.99 20.31h-59.52l2.53-11.45h41.68q.13-6.39-4-10.26-4.12-3.86-12.11-3.86-8.93 0-14.39 4.53t-7.92 11.65q-2.46 7.13-2.46 14.98 0 6 2.19 10.39 2.2 4.4 6.33 6.86t9.59 2.46q8.92 0 14.11-3.86 5.2-3.86 6.93-9.85h15.98q-2.4 8.12-7.26 14.18t-12.45 9.32-18.24 3.26"/></g><path fill="transparent" stroke="transparent" d="M615.5 0h769v239h-769z"/></g></svg>